<svg width="100%" height="100%" viewBox="0 0 107 24" fill="none" xmlns="http://www.w3.org/2000/svg">
<path fill-rule="evenodd" clip-rule="evenodd" d="M97.9269 10.0962C97.8952 10.3217 97.7049 10.4944 97.4759 10.4979C97.1265 10.5066 96.7811 10.5046 96.4373 10.5026C96.2228 10.5013 96.009 10.5001 95.7951 10.5014C95.3561 10.5038 94.9186 10.503 94.4806 10.5022C94.2613 10.5018 94.0417 10.5014 93.8219 10.5014H89.8051C89.611 10.5014 89.4165 10.5009 89.222 10.5003C88.7351 10.4988 88.2473 10.4974 87.7614 10.505C87.5639 10.5079 87.3658 10.5047 87.1664 10.5016C86.8854 10.4971 86.6017 10.4926 86.3132 10.505C86.0032 10.5155 85.7918 10.8221 85.8904 11.1145C85.9715 11.3577 86.0807 11.5867 86.2146 11.8051C87.1131 13.2921 88.4556 14.0355 90.1715 14.1201C91.6091 14.1941 92.9093 13.7889 94.0615 12.9221C94.1447 12.8597 94.2255 12.7961 94.3059 12.7327C94.3617 12.6887 94.4176 12.6447 94.4738 12.6015C94.6535 12.457 94.9142 12.4676 95.0834 12.6261C95.5767 13.0912 96.3695 13.951 96.7958 14.4795C96.9403 14.6627 96.9297 14.9235 96.7712 15.0926C96.5915 15.2829 96.3871 15.4555 96.1827 15.6176C94.7451 16.7628 93.1067 17.397 91.2744 17.538C89.9989 17.6366 88.7304 17.5943 87.5113 17.1856C84.474 16.1602 82.5853 14.0426 81.937 10.9278C81.3521 8.13361 82.0568 5.60722 84.0124 3.49661C86.3273 0.998412 89.9989 0.191523 93.1313 1.43886C95.5273 2.39374 97.9692 4.75452 97.9727 8.55643C97.9727 9.04973 97.9551 9.54302 97.9375 10.0363C97.936 10.0436 97.9345 10.0515 97.9331 10.0597L97.9302 10.0765L97.9269 10.0962ZM86.2639 7.6544C87.8953 7.70725 92.1306 7.69669 93.5612 7.64383C93.8642 7.63326 94.0756 7.34081 93.9911 7.05188C93.9858 7.0325 93.9796 7.01312 93.9735 6.99374C93.9702 6.9835 93.9669 6.97325 93.9638 6.96301C93.9625 6.95856 93.9611 6.9541 93.9598 6.94965C93.9585 6.94496 93.9571 6.94028 93.9558 6.9356C93.7515 6.26965 93.378 5.70941 92.86 5.24782C92.1729 4.63472 91.3555 4.30351 90.4534 4.18723C88.2442 3.90182 86.4612 5.17734 85.8411 7.04835C85.7424 7.33728 85.9538 7.64383 86.2639 7.6544Z" fill="#0B1012"/>
<path d="M20.6537 3.16177C20.7705 3.04385 20.8638 2.94971 20.9514 2.85181C22.7696 0.797576 25.4968 0.48398 27.5933 1.24859C29.5207 1.94978 30.7152 3.34862 31.2965 5.29362C31.5397 6.11108 31.6207 6.94969 31.6242 7.79887L31.6243 7.82032L31.6243 7.82168C31.6349 10.1643 31.6454 12.5034 31.6489 14.846C31.6489 15.1279 31.6383 15.4097 31.5996 15.6881C31.4798 16.5584 30.7715 17.1891 29.866 17.2561C28.978 17.323 28.1535 16.7874 27.9175 15.9559C27.8364 15.667 27.8118 15.3534 27.8082 15.0539C27.8016 13.9682 27.8019 12.8811 27.8022 11.7944V11.7906C27.8023 11.1399 27.8025 10.4891 27.8012 9.839C27.8012 9.7306 27.8014 9.6223 27.8016 9.51406L27.8016 9.50955C27.8026 8.96143 27.8035 8.41474 27.78 7.86581C27.7624 7.49231 27.7166 7.11529 27.6215 6.75589C27.3889 5.89615 26.8428 5.27601 26.0535 4.86023C23.4813 3.50719 20.5321 5.62131 20.4652 8.14769C20.4546 8.54586 20.4511 8.94754 20.4511 9.3457V14.631C20.4511 14.6885 20.4514 14.746 20.4518 14.8035C20.4534 15.0525 20.455 15.301 20.4264 15.5471C20.2537 17.0411 18.6294 17.7564 17.4032 16.8861C16.9522 16.5655 16.7372 16.1109 16.6668 15.5753C16.6466 15.4226 16.6476 15.27 16.6487 15.1153C16.6489 15.081 16.6491 15.0461 16.6491 15.0116C16.6491 14.0492 16.6489 13.0868 16.6487 12.1244V12.1236C16.648 9.23493 16.6474 6.34546 16.6527 3.45433C16.6527 3.1513 16.6703 2.83771 16.7513 2.5523C16.9804 1.72427 17.671 1.21335 18.5201 1.19926C19.3411 1.18516 20.0776 1.70665 20.3383 2.50297C20.3788 2.63717 20.4064 2.77652 20.439 2.94127C20.4603 3.04903 20.4838 3.16766 20.5145 3.30281C20.5646 3.25173 20.6108 3.20507 20.6537 3.16177Z" fill="#0B1012"/>
<path fill-rule="evenodd" clip-rule="evenodd" d="M10.4583 15.2052C10.3872 15.2754 10.3222 15.3399 10.2616 15.4001C10.0969 15.5637 9.96399 15.6957 9.82754 15.8219C8.05872 17.418 6.01858 17.9642 3.69656 17.3863C3.12223 17.2454 2.59722 16.9776 2.1004 16.657C-0.531696 14.9621 -0.725491 11.1426 1.71985 9.17998C2.35057 8.67259 3.06585 8.33081 3.83046 8.08416C4.52536 7.86018 5.24132 7.73917 5.95736 7.61814C6.11987 7.59067 6.28266 7.56316 6.44493 7.53448C7.16653 7.40701 7.88946 7.28352 8.6129 7.15994L8.61386 7.15977C9.06986 7.08188 9.52638 7.00389 9.98258 6.92491C10.0441 6.91544 10.1025 6.89326 10.1662 6.86904C10.1973 6.85722 10.2298 6.84485 10.2645 6.8333C10.3843 6.32591 10.194 5.89955 9.91211 5.52253C9.12988 4.47956 8.07986 4.01798 6.77615 4.18711C6.16657 4.26463 5.59223 4.47252 5.06018 4.78611C4.75715 4.96582 4.45413 5.14904 4.15815 5.33579C3.84808 5.52959 3.50982 5.60005 3.15041 5.58596C2.47389 5.55777 1.98412 5.23713 1.73042 4.61346C1.46968 3.97218 1.55424 3.36613 2.04402 2.85169C2.18848 2.70018 2.35761 2.56627 2.52322 2.43943C3.79874 1.48102 5.23636 0.970107 6.82548 0.882018C7.91778 0.822118 8.98189 0.948966 10.0108 1.32246C10.9057 1.64663 11.7021 2.12583 12.3892 2.79178C13.5061 3.87703 14.0946 5.20189 14.1122 6.75226C14.1333 8.67092 14.1307 10.5916 14.128 12.5112V12.513C14.1272 13.1519 14.1263 13.7914 14.1263 14.4301C14.1263 14.5747 14.1244 14.7198 14.1226 14.8651C14.1193 15.1196 14.116 15.3746 14.1228 15.6281C14.1439 16.5372 13.4779 17.2242 12.5372 17.2489C12.2799 17.256 12.0121 17.256 11.769 17.1961C11.096 17.0234 10.6591 16.6076 10.5534 15.8959C10.5252 15.7091 10.5005 15.5259 10.4583 15.2052ZM10.2539 9.62042C10.162 9.6352 10.0708 9.64904 9.98021 9.66277C9.7685 9.69488 9.56019 9.72646 9.35538 9.76841C9.13739 9.81283 8.9194 9.85685 8.70146 9.90086L8.7006 9.90103L8.69886 9.90138C7.79397 10.0841 6.88983 10.2667 5.99039 10.4766C5.53938 10.5824 5.09894 10.7656 4.67611 10.9559C4.25329 11.1461 3.94321 11.4879 3.84808 11.946C3.66133 12.8621 3.88331 13.7324 4.89457 14.2398C5.43015 14.5076 6.00801 14.5886 6.60349 14.5252C8.42517 14.3314 9.83459 13.1017 10.2468 11.3117C10.3702 10.7761 10.4759 10.2159 10.2539 9.62042Z" fill="#0B1012"/>
<path d="M39.8403 11.295L39.84 11.2959L39.8369 11.3031C39.795 11.4023 39.7488 11.5117 39.6967 11.6361C39.5275 11.245 39.4253 11.0125 39.3126 10.7623L39.3118 10.7603L39.3111 10.7588C38.1947 8.04681 37.0782 5.33485 35.9546 2.62641C35.8278 2.32339 35.6904 2.02389 35.5248 1.74201C35.2746 1.31213 34.8764 1.05844 34.3796 1.01968C34.0061 0.991491 33.6221 0.973868 33.2556 1.0232C32.1598 1.17471 31.5396 2.09788 31.8039 3.17256C31.8744 3.46854 31.9942 3.75395 32.121 4.02879L32.5913 5.05931C33.3606 6.74519 34.1295 8.43025 34.9081 10.1104C35.7785 11.985 36.6558 13.856 37.5367 15.7234C37.6953 16.0547 37.801 16.3929 37.6389 16.7382L37.5908 16.8428C37.3428 17.3826 37.0942 17.9234 36.7897 18.4331C36.4374 19.0215 35.8736 19.2928 35.1795 19.2435C34.9202 19.2271 34.6609 19.177 34.4045 19.1275L34.3479 19.1166C33.6291 18.9757 33.2239 19.1483 32.8892 19.7826C32.6918 20.1561 32.5121 20.5401 32.3606 20.9348C32.0611 21.71 32.2972 22.2632 33.0548 22.5909C33.8194 22.9221 34.6192 23.0982 35.4473 23.1335C37.4028 23.218 38.9039 22.4252 39.9327 20.7551C40.0208 20.6177 40.1054 20.4767 40.1794 20.3287C40.2904 20.1047 40.4043 19.8812 40.5184 19.6575C40.799 19.1074 41.0806 18.5551 41.321 17.9891C42.4205 15.3963 43.5081 12.7975 44.5957 10.1988C44.958 9.33301 45.3204 8.46723 45.6832 7.60166C46.3209 6.08654 46.9587 4.57142 47.5824 3.05277C47.6986 2.77441 47.7973 2.4749 47.829 2.17892C47.8924 1.57287 47.5401 1.143 46.9375 1.03024C46.7712 0.998255 46.5991 0.995311 46.429 0.992404L46.3773 0.99149C46.1117 0.989139 45.8446 0.989924 45.578 0.990708C45.4449 0.991099 45.3119 0.99149 45.1793 0.99149C43.9954 0.99149 43.8615 1.08663 43.421 2.20711C42.8591 3.63759 42.2971 5.06894 41.7351 6.50029L41.7221 6.53355L41.7179 6.5442C41.1616 7.9611 40.6053 9.37798 40.049 10.794C39.9867 10.9485 39.9215 11.103 39.8403 11.295Z" fill="#0B1012"/>
<path fill-rule="evenodd" clip-rule="evenodd" d="M63.6181 9.20486C63.4842 12.5593 62.0853 15.1949 59.0093 16.6995C56.0742 18.1335 53.1249 17.9644 50.366 16.1744C48.2378 14.7932 47.0398 12.7672 46.7614 10.2408C46.4337 7.27748 47.3745 4.77576 49.6719 2.84485C51.2962 1.47772 53.2024 0.815289 55.3307 0.889283C58.597 1.00204 61.06 2.49603 62.6632 5.34306C63.3327 6.53049 63.6322 7.82715 63.6181 9.20486ZM55.1862 4.40227C53.5971 4.32123 52.3075 5.13516 51.5922 5.99139C50.6796 7.08016 50.3519 8.34511 50.4893 9.73339C50.7289 12.1188 52.3638 13.8489 54.6542 14.0709C56.7683 14.2753 58.738 13.1653 59.5096 11.1181C59.8655 10.1703 59.9465 9.19077 59.7527 8.2077C59.4074 6.46355 58.4138 5.24087 56.7154 4.63835C56.201 4.45512 55.6689 4.38465 55.1862 4.40227Z" fill="#0B1012"/>
<path d="M69.5363 2.90959C69.4286 3.04432 69.3171 3.18371 69.1182 3.257C69.0936 3.1372 69.0759 3.0491 69.0689 2.96454C69.0613 2.92511 69.0557 2.88504 69.05 2.84486C69.0426 2.79178 69.0351 2.73827 69.0231 2.68617C68.7976 1.75243 67.9801 1.13934 67.064 1.20276C66.1302 1.26971 65.4009 1.9709 65.2987 2.91873C65.2752 3.13316 65.2762 3.35004 65.2772 3.56529C65.2773 3.60804 65.2775 3.65132 65.2775 3.69391V14.7579C65.2775 14.814 65.2765 14.8703 65.2755 14.9267C65.2728 15.0826 65.27 15.2396 65.2881 15.3921C65.3128 15.6211 65.3515 15.8572 65.4326 16.0757C65.7145 16.8368 66.4051 17.2737 67.2507 17.2525C68.0541 17.2279 68.7024 16.7663 68.935 15.9946C69.0266 15.6881 69.0548 15.3498 69.0583 15.0257C69.0649 13.7922 69.0647 12.5587 69.0644 11.3252C69.0642 10.5855 69.064 9.84578 69.0654 9.10609L69.0653 9.0122C69.0649 8.76103 69.0646 8.50789 69.0865 8.26044C69.2838 6.08288 70.7531 4.69107 72.6347 4.5008C74.9638 4.26825 76.2499 5.87851 76.4084 7.52401C76.4402 7.8517 76.4437 8.18291 76.4437 8.5106C76.4437 9.04585 76.4435 9.58087 76.4432 10.1158V10.1217C76.4426 11.7223 76.4419 13.3219 76.4472 14.9235C76.4472 15.2265 76.4613 15.5366 76.5247 15.8325C76.715 16.7275 77.4902 17.2842 78.4451 17.2525C79.3788 17.2173 80.1046 16.5725 80.2209 15.6599C80.2456 15.4731 80.2456 15.2829 80.2456 15.0961L80.2456 15.0888C80.2491 12.741 80.2526 10.3968 80.2456 8.04902C80.2421 7.34431 80.2068 6.64312 80.0835 5.94546C79.4598 2.46067 76.1547 0.103417 72.374 1.09706C71.2993 1.37894 70.4114 1.97442 69.6503 2.77426C69.6104 2.81685 69.5736 2.86294 69.5363 2.90959Z" fill="#0B1012"/>
<path d="M103.91 7.52619C103.805 7.52868 103.701 7.53118 103.596 7.53118C103.474 7.5324 103.352 7.52981 103.23 7.52723C103 7.52236 102.771 7.51751 102.543 7.53823C101.479 7.64394 100.693 8.49311 100.651 9.55017C100.612 10.5473 101.348 11.4987 102.345 11.6502C103.163 11.7771 103.98 11.763 104.791 11.6643C105.464 11.5797 105.975 11.2027 106.264 10.5931C106.944 9.14497 106.087 7.67565 104.579 7.53471C104.358 7.51548 104.134 7.52084 103.91 7.52619Z" fill="#0B1012"/>
<path d="M103.575 1.68916C103.695 1.69551 103.812 1.70026 103.928 1.70496C104.197 1.71591 104.459 1.72651 104.72 1.75611C105.799 1.87943 106.489 2.70042 106.493 3.83853C106.493 4.89207 105.767 5.75533 104.72 5.84342C103.977 5.90685 103.219 5.92799 102.479 5.85047C101.098 5.706 100.302 4.34592 100.792 3.04573C101.084 2.27407 101.665 1.84419 102.476 1.74553C102.728 1.71694 102.982 1.7093 103.228 1.7019C103.346 1.69835 103.462 1.69487 103.575 1.68916Z" fill="#0B1012"/>
<path d="M103.247 17.5247C103.35 17.5226 103.454 17.5204 103.557 17.5204C103.66 17.5204 103.762 17.5222 103.865 17.5239C104.092 17.5277 104.319 17.5315 104.544 17.5169C105.629 17.45 106.412 16.6537 106.489 15.5614C106.563 14.4726 105.89 13.5776 104.798 13.4014C103.984 13.2711 103.156 13.271 102.342 13.4085C101.299 13.5811 100.619 14.4691 100.661 15.5191C100.7 16.5832 101.507 17.4324 102.571 17.5169C102.795 17.5338 103.021 17.5292 103.247 17.5247Z" fill="#0B1012"/>
</svg>
